<svg id="Layer_1" data-name="Layer 1" xmlns="http://www.w3.org/2000/svg" viewBox="0 0 24 24"><defs><style>.cls-1{fill:#3ab8d1;}.cls-1,.cls-2{fill-rule:evenodd;}.cls-2{fill:#fff;}</style></defs><g id="Icons"><g id="Rounded"><g id="Notification"><g id="_-Round-_-Notification-_-live_tv" data-name="-Round-/-Notification-/-live_tv"><polygon id="Path" class="cls-1" points="0 0 24 0 24 24 0 24 0 0"/><path id="_-Icon-Color" data-name="🔹-Icon-Color" class="cls-2" d="M9.5,15.15l4-2.28a1,1,0,0,0,0-1.74l-4-2.28A1,1,0,0,0,8,9.72v4.55A1,1,0,0,0,9.5,15.15ZM20,4H12.41l2.94-2.94a.5.5,0,0,0,0-.71.5.5,0,0,0-.71,0L11,4,7.36.35a.5.5,0,0,0-.71,0,.5.5,0,0,0,0,.71L9.59,4H2A2,2,0,0,0,0,6V18a2,2,0,0,0,2,2H20a2,2,0,0,0,2-2V6A2,2,0,0,0,20,4ZM19,18H3a1,1,0,0,1-1-1V7A1,1,0,0,1,3,6H19a1,1,0,0,1,1,1V17A1,1,0,0,1,19,18Z" transform="translate(1 2)"/></g></g></g></g></svg>